<svg xmlns="http://www.w3.org/2000/svg" width="256" height="256" viewBox="0 0 100 100"><path d="M45.08 75.42L38.19 75.42Q35.40 68.61 32.94 63.08Q30.48 57.54 28.23 52.71Q25.97 47.87 23.76 43.56Q21.55 39.26 19.25 34.91L19.25 34.91L19.25 75.42L13.10 75.42L13.10 24.66L19.99 24.66Q23.35 30.81 25.85 35.40Q28.35 40.00 30.44 44.30Q32.53 48.61 34.50 53.16Q36.47 57.71 38.93 63.69L38.93 63.69L38.93 24.66L45.08 24.66L45.08 75.42ZM80.18 69.60L80.18 50.41L86.90 50.41L86.90 74.19Q85.34 74.76 81.90 75.63Q78.45 76.49 73.78 76.49L73.78 76.49Q69.19 76.49 65.42 74.72Q61.64 72.96 58.98 69.60Q56.31 66.24 54.84 61.27Q53.36 56.31 53.36 50L53.36 50Q53.36 43.60 55.00 38.68Q56.64 33.76 59.47 30.40Q62.30 27.04 66.07 25.28Q69.84 23.51 74.19 23.51L74.19 23.51Q76.98 23.51 79.11 23.92Q81.24 24.33 82.76 24.91Q84.28 25.48 85.26 26.10Q86.24 26.71 86.74 27.04L86.74 27.04L84.52 32.70Q82.64 31.22 80.05 30.28Q77.47 29.34 74.60 29.34L74.60 29.34Q71.48 29.34 68.82 30.81Q66.15 32.29 64.27 34.99Q62.38 37.70 61.32 41.51Q60.25 45.33 60.25 50L60.25 50Q60.25 54.59 61.19 58.36Q62.14 62.14 63.94 64.84Q65.74 67.55 68.41 69.06Q71.07 70.58 74.52 70.58L74.52 70.58Q76.90 70.58 78.21 70.25Q79.52 69.93 80.18 69.60L80.18 69.60Z" fill="#fff"></path></svg>